# xmcd
#
# Track frame offsets: 
#        150
#        14286
#        27815
#        38068
#        48942
#        59562
#        69617
#        80451
#        94004
#        104755
#        116466
#        125698
#        137579
#        151328
#        163758
#        174460
#        187576
#        199121
#        209655
#        222931
#
# Disc length: 3155 seconds
#
# Revision: 1
# Processed by: cddbd v1.5.2PL0 Copyright (c) Steve Scherf et al.
# Submitted via: ExactAudioCopy v0.90b4
#
DISCID=180c5114
DTITLE=Dean Martin - The Platinum Collection [CD1]
DYEAR=2016
DGENRE=Jazz
TTITLE0=That's Amoré
TTITLE1=Volaré (Nel Blu Dipinto Di Blu)
TTITLE2=Memories Are Made Of This
TTITLE3=On An Evening In Roma (Sott'er Celo De Roma)
TTITLE4=Buona Sera
TTITLE5=You're Nobody 'Till Somebody Loves You
TTITLE6=Return To Me (Ritorna A Me)
TTITLE7=Rio Bravo
TTITLE8=Kiss
TTITLE9=Sleepy Time Gal
TTITLE10=Pretty Baby
TTITLE11=The Object Of My Affection
TTITLE12=Let Me Go Lover
TTITLE13=Forgetting You
TTITLE14=Basin Street Blues
TTITLE15=The Naughty Lady Of Shady Lane
TTITLE16=Carolina Moon
TTITLE17=Dinah
TTITLE18=Promise Her Anything (But Give Her Love)
TTITLE19=When You're Smiling
EXTD=YEAR: 2016
EXTT0=
EXTT1=
EXTT2=
EXTT3=
EXTT4=
EXTT5=
EXTT6=
EXTT7=
EXTT8=
EXTT9=
EXTT10=
EXTT11=
EXTT12=
EXTT13=
EXTT14=
EXTT15=
EXTT16=
EXTT17=
EXTT18=
EXTT19=
PLAYORDER=
